<?xml version="1.0" standalone="no"?>
<!DOCTYPE svg PUBLIC "-//W3C//DTD SVG 20010904//EN"
 "http://www.w3.org/TR/2001/REC-SVG-20010904/DTD/svg10.dtd">
<svg version="1.0" xmlns="http://www.w3.org/2000/svg"
 width="819.000000pt" height="819.000000pt" viewBox="0 0 819.000000 819.000000"
 preserveAspectRatio="xMidYMid meet">
<metadata>
Created by potrace 1.11, written by Peter Selinger 2001-2013
</metadata>
<g transform="translate(0.000000,819.000000) scale(0.100000,-0.100000)"
fill="#000000" stroke="none">
<path d="M3848 8185 c-1 -1 -41 -5 -88 -9 -82 -6 -103 -9 -200 -21 -97 -13
-145 -21 -220 -35 -30 -6 -66 -14 -80 -16 -224 -44 -663 -183 -772 -244 -10
-6 -25 -10 -33 -10 -8 0 -15 -4 -15 -10 0 -5 -6 -10 -14 -10 -8 0 -46 -16 -85
-35 -39 -19 -73 -35 -77 -35 -3 0 -19 -9 -35 -21 -16 -11 -29 -18 -29 -15 0 4
-18 -5 -40 -19 -22 -14 -42 -25 -44 -25 -22 0 -422 -260 -438 -284 -4 -6 -8
-7 -8 -3 0 5 -7 2 -15 -5 -16 -15 -15 -13 -112 -91 -40 -31 -83 -67 -97 -80
-14 -12 -46 -40 -72 -62 -97 -82 -288 -278 -419 -430 -38 -43 -217 -282 -251
-334 -16 -24 -37 -56 -46 -70 -10 -14 -21 -33 -25 -41 -3 -8 -9 -17 -13 -20
-6 -5 -32 -49 -87 -145 -35 -60 -204 -401 -207 -417 -2 -7 -9 -26 -16 -43 -38
-88 -49 -114 -64 -160 -9 -27 -16 -54 -17 -60 0 -5 -4 -14 -9 -20 -7 -9 -44
-127 -71 -225 -7 -25 -14 -49 -15 -55 -2 -5 -5 -19 -7 -30 -3 -11 -12 -47 -20
-80 -9 -33 -18 -73 -21 -90 -3 -16 -7 -41 -10 -55 -13 -62 -38 -218 -42 -259
-2 -25 -7 -57 -9 -71 -20 -109 -27 -647 -12 -795 29 -266 39 -332 83 -535 37
-172 83 -342 103 -378 6 -12 9 -22 6 -22 -3 0 2 -17 11 -38 8 -20 17 -44 19
-52 3 -15 29 -86 45 -125 115 -271 258 -562 283 -573 4 -2 7 -9 7 -16 0 -18
235 -372 270 -406 3 -3 18 -23 35 -45 16 -22 31 -42 35 -45 3 -3 30 -34 60
-70 142 -169 329 -354 521 -515 13 -11 67 -53 119 -93 52 -40 103 -79 113 -87
9 -8 17 -11 17 -7 0 4 4 2 8 -4 8 -14 216 -150 282 -185 25 -13 47 -26 50 -29
10 -10 195 -104 310 -158 124 -58 418 -171 485 -186 6 -2 30 -9 55 -16 25 -8
47 -14 50 -15 3 -1 25 -7 50 -14 119 -34 381 -87 535 -107 90 -12 99 -13 195
-21 121 -10 571 -10 670 0 41 4 100 10 130 13 30 3 66 7 80 10 14 2 45 7 70
10 25 3 64 10 88 15 23 5 59 12 80 15 20 3 53 9 72 14 19 5 46 11 60 14 53 10
265 68 297 81 18 8 33 12 33 10 0 -2 16 3 35 11 19 8 36 14 37 13 2 0 16 4 31
10 16 6 31 11 34 11 18 0 308 123 418 178 145 71 358 191 363 204 2 4 8 8 14
8 8 0 192 121 238 157 8 6 52 41 98 77 45 36 85 66 88 66 2 0 18 13 34 30 16
16 32 30 34 30 13 0 270 251 366 356 59 65 73 81 135 159 22 27 47 56 55 65 8
9 22 27 30 39 8 13 22 31 30 41 40 48 222 320 214 320 -3 0 5 15 18 33 36 50
43 62 128 230 44 87 98 202 121 255 22 53 45 106 50 117 6 12 11 27 13 35 3
16 13 43 26 75 14 32 84 249 95 295 34 141 65 271 69 295 26 154 36 219 41
261 3 27 7 63 10 79 26 191 26 778 0 916 -3 13 -7 45 -10 73 -3 28 -8 60 -10
71 -3 11 -7 38 -10 60 -14 98 -57 289 -110 480 -38 141 -137 405 -206 552 -22
46 -39 87 -39 91 0 5 -9 21 -21 36 -11 14 -18 26 -14 26 3 0 -3 13 -14 29 -12
16 -21 32 -21 36 0 12 -99 183 -159 275 -31 47 -58 90 -60 95 -2 6 -49 71
-105 145 -102 137 -115 154 -151 194 -11 12 -47 54 -80 91 -98 113 -378 385
-395 385 -5 0 -10 4 -12 9 -1 5 -34 34 -73 65 -38 31 -79 64 -91 75 -11 10
-32 24 -45 31 -13 7 -31 21 -40 31 -9 10 -19 16 -23 12 -3 -3 -6 -1 -6 5 0 7
-7 12 -15 12 -8 0 -15 3 -15 8 0 4 -28 25 -63 47 -34 22 -68 45 -75 52 -7 7
-20 13 -28 13 -8 0 -14 5 -14 10 0 6 -4 10 -9 10 -6 0 -30 14 -54 30 -25 17
-50 30 -56 30 -6 0 -11 5 -11 10 0 6 -4 10 -9 10 -4 0 -75 35 -157 77 -82 43
-153 78 -159 79 -5 1 -45 18 -88 38 -42 20 -79 36 -81 36 -3 0 -15 4 -28 9
-13 5 -27 10 -33 11 -5 1 -19 7 -30 13 -11 6 -24 12 -30 14 -5 1 -44 14 -85
29 -129 45 -405 122 -500 138 -19 3 -46 9 -60 12 -14 3 -34 6 -45 8 -11 2 -33
6 -50 9 -16 3 -48 9 -70 12 -22 2 -56 7 -75 10 -73 9 -136 17 -175 21 -49 5
-602 14 -607 9z"/>
</g>
</svg>
